<?xml version="1.0" encoding="utf-8"?>
<!-- Svg Vector Icons : http://www.sfont.cn -->
<!DOCTYPE svg PUBLIC "-//W3C//DTD SVG 1.1//EN" "http://www.w3.org/Graphics/SVG/1.1/DTD/svg11.dtd">
<svg version="1.1" xmlns="http://www.w3.org/2000/svg" xmlns:xlink="http://www.w3.org/1999/xlink" x="0px" y="0px" viewBox="0 0 1000 1000" enable-background="new 0 0 1000 1000" xml:space="preserve">
<metadata> Svg Vector Icons : http://www.sfont.cn </metadata>
<g><path d="M283.9,795.7l-22.3,92.1c64.8,24.5,137.1,33.4,216.8,26.7l-28.8-118.8H283.9z M366.8,488.2c-7.2,0-9.3,2.9-11.5,11.5l-51.8,213.9h126.8l-51.8-213.9C376.2,491.1,374,488.2,366.8,488.2z M971.8,367c-31.2-117.2-101.2-198.8-209.6-244.6C653.6,76.5,534.6,71.1,404.7,106C256.3,145.8,147.8,209.4,79.6,296.7C11.4,384.1-6.7,488,25.5,608.4c27.3,102.4,76.2,179.3,146.4,231l94.8-362.1c17.3-67,69.1-73.4,100.1-73.4s82.8,6.5,100.1,73.4l110.4,421.6c11.6-2.6,23.4-5.4,35.3-8.6V564.5c0-8,6.5-14.5,14.5-14.5h66.3c8,0,14.5,6.5,14.5,14.5v294.6c98.6-39.4,172.5-93.8,221.1-163.4C991.9,605.5,1006.2,496,971.8,367z M709.7,481.7c0,8-6.5,14.5-14.5,14.5h-69.8c-8,0-15.1-6.5-15.1-14.5v-63.3c0-8,7.2-14.5,15.1-14.5h69.8c8,0,14.5,6.5,14.5,14.5V481.7z"/></g>
</svg>